# xmcd
#
# Track frame offsets: 
#        150
#        11409
#        31125
#        47300
#        65173
#        82620
#        92690
#        105407
#        123560
#        140789
#        156831
#        171815
#        186968
#        205194
#        219794
#        234451
#        252231
#        264460
#        280257
#        305112
#
# Disc length: 4193 seconds
#
# Revision: 0
# Processed by: cddbd v1.5.2PL0 Copyright (c) Steve Scherf et al.
# Submitted via: ExactAudioCopyFreeDBPlugin 1.0
#
DISCID=0e105f14
DTITLE=Emeli Sandé - Long Live The Angels (Deluxed Edition)
DYEAR=2016
DGENRE=Soul
TTITLE0=Selah
TTITLE1=Breathing Underwater
TTITLE2=Happen
TTITLE3=Hurts
TTITLE4=Give Me Somthing
TTITLE5=Right Now
TTITLE6=Shakes
TTITLE7=Garden (feat. Jay Electronica and Áine Zion)
TTITLE8=I'd Rather Not
TTITLE9=Lonely
TTITLE10=Sweet Architect
TTITLE11=Tenderly (feat. Joel Sandé and The Serenje Choir)
TTITLE12=Every Single Little Piece
TTITLE13=Highs and Lows
TTITLE14=Babe
TTITLE15=Kung Fu
TTITLE16=Somebody
TTITLE17=The Much is True
TTITLE18=Naturally (Bonus Track)
TTITLE19=Dream On (Bonus Track)
EXTD=
EXTT0=
EXTT1=
EXTT2=
EXTT3=
EXTT4=
EXTT5=
EXTT6=
EXTT7=
EXTT8=
EXTT9=
EXTT10=
EXTT11=
EXTT12=
EXTT13=
EXTT14=
EXTT15=
EXTT16=
EXTT17=
EXTT18=
EXTT19=
PLAYORDER=
